# xmcd CD database file
#
# Track frame offsets:
#	150
#	11850
#	23775
#	36750
#	49125
#	63225
#	76050
#	85050
#	99450
#	117150
#	127725
#	141600
#
# Disc length: 2134 seconds
#
# Revision: 0
# Processed by: cddbd v1.4PL0 Copyright (c) Steve Scherf et al.
# Submitted via: CDex 1.50beta9
#
DISCID=9408540c
DTITLE=JIMMY BUCKLEY - THE GRAND TOUR
DYEAR=1900
DGENRE=Country
TTITLE0=Tijuana Lady
TTITLE1=Liza Jane
TTITLE2=Behind Closed Doors
TTITLE3=Do You Mind
TTITLE4=The Grand Tour
TTITLE5=Baby I'm lovin' you now
TTITLE6=Hello Trouble
TTITLE7=Mind of a child
TTITLE8=Hills Of Kerry
TTITLE9=Hot Burnin' Flames
TTITLE10=Beautiful Sunday
TTITLE11=Buckley mix
EXTD=
EXTT0=
EXTT1=
EXTT2=
EXTT3=
EXTT4=
EXTT5=
EXTT6=
EXTT7=
EXTT8=
EXTT9=
EXTT10=
EXTT11=
PLAYORDER=
